<?xml version="1.0" encoding="UTF-8" standalone="no"?>
<svg xmlns="http://www.w3.org/2000/svg" version="1.1" viewBox="0 0 224.7168 66.29745">
  <path fill="#ffffff" d="m 0,65.37503 v -5.5781 l 7.2188,-1.2344 V 7.78153 L 0,6.54713 v -5.625 h 23.156 v 5.625 l -7.2188,1.2344 v 22.266 h 30.812 v -22.266 l -7.2188,-1.2344 v -5.625 h 23.156 v 5.625 l -7.2188,1.2344 v 50.781 l 7.2188,1.2344 v 5.5781 h -23.156 v -5.5781 l 7.2188,-1.2344 v -21.656 h -30.812 v 21.656 l 7.2188,1.2344 v 5.5781 z m 96.69475,0.92187 c -4.427067,0 -8.3854,-0.8698 -11.875,-2.6094 -3.4792,-1.7396 -6.224,-4.223967 -8.2344,-7.4531 -2,-3.2292 -3,-7.1042 -3,-11.625 V 7.7814 L 66.36655,6.547 V 0.922 h 23.156 v 5.625 l -7.2188,1.2344 v 36.828 c 0,3.218733 0.609367,5.921867 1.8281,8.1094 1.2292,2.177067 2.937533,3.8229 5.125,4.9375 2.187467,1.104133 4.7083,1.6562 7.5625,1.6562 2.89587,0 5.45837,-0.546867 7.6875,-1.6406 2.2292,-1.093733 3.9688,-2.729133 5.2188,-4.9062 1.2604,-2.187467 1.8906,-4.9062 1.8906,-8.1562 V 7.7815 l -7.2188,-1.2344 v -5.625 h 23.156 v 5.625 l -7.2188,1.2344 v 36.828 c 0,4.666667 -0.98437,8.614667 -2.9531,11.844 -1.95833,3.2292 -4.70833,5.677133 -8.25,7.3438 -3.54167,1.666667 -7.68767,2.5 -12.438,2.5 z m 57.66925,0 c -6.46873,0 -11.86473,-1.411467 -16.188,-4.2344 -4.32293,-2.833333 -7.56773,-6.713667 -9.7344,-11.641 -2.16667,-4.937467 -3.25,-10.531133 -3.25,-16.781 V 32.703 c 0,-6.312533 1.1354,-11.921867 3.4062,-16.828 2.2708,-4.916667 5.5312,-8.7916667 9.7812,-11.625 4.25,-2.8333333 9.323,-4.25 15.219,-4.25 4.16667,0 7.974,0.65103333 11.422,1.9531 3.45833,1.2916667 6.32293,2.9427 8.5938,4.9531 v 13.891 h -6.9531 l -0.92187,-10.172 c -0.94793,-0.7396 -2.03647,-1.3594 -3.2656,-1.8594 -1.21873,-0.5104133 -2.5729,-0.8958133 -4.0625,-1.1562 -1.4896,-0.2708333 -3.1042,-0.40625 -4.8438,-0.40625 -4.2292,0 -7.8022,1.0885333 -10.719,3.2656 -2.91667,2.166667 -5.1302,5.156267 -6.6406,8.9688 -1.5,3.802067 -2.25,8.198067 -2.25,13.188 v 1.0156 c 0,5.395867 0.80207,10.0052 2.4062,13.828 1.60413,3.822933 3.94787,6.7396 7.0312,8.75 3.08333,2 6.83867,3 11.266,3 2.07293,0 4.09377,-0.25 6.0625,-0.75 1.9792,-0.5 3.61983,-1.151033 4.9219,-1.9531 l 0.96875,-8.9844 h 6.8281 v 14 c -2.42707,1.5 -5.3229,2.671867 -8.6875,3.5156 -3.3646,0.833333 -6.82827,1.25 -10.391,1.25 z m 51.103,0 c -6.46873,0 -11.86473,-1.411467 -16.188,-4.2344 -4.32293,-2.833333 -7.56773,-6.713667 -9.7344,-11.641 -2.16667,-4.937467 -3.25,-10.531133 -3.25,-16.781 V 32.703 c 0,-6.312533 1.1354,-11.921867 3.4062,-16.828 2.2708,-4.916667 5.5312,-8.7916667 9.7812,-11.625 4.25,-2.8333333 9.323,-4.25 15.219,-4.25 4.16667,0 7.974,0.65103333 11.422,1.9531 3.45833,1.2916667 6.32293,2.9427 8.5938,4.9531 v 13.891 h -6.9531 l -0.92188,-10.172 c -0.94793,-0.7396 -2.03647,-1.3594 -3.2656,-1.8594 -1.21873,-0.5104133 -2.5729,-0.8958133 -4.0625,-1.1562 -1.4896,-0.2708333 -3.1042,-0.40625 -4.8438,-0.40625 -4.2292,0 -7.8022,1.0885333 -10.719,3.2656 -2.91667,2.166667 -5.1302,5.156267 -6.6406,8.9688 -1.5,3.802067 -2.25,8.198067 -2.25,13.188 v 1.0156 c 0,5.395867 0.80207,10.0052 2.4062,13.828 1.60413,3.822933 3.94787,6.7396 7.0312,8.75 3.08333,2 6.83867,3 11.266,3 2.07293,0 4.09377,-0.25 6.0625,-0.75 1.9792,-0.5 3.61983,-1.151033 4.9219,-1.9531 l 0.96875,-8.9844 h 6.8281 v 14 c -2.42707,1.5 -5.3229,2.671867 -8.6875,3.5156 -3.3646,0.833333 -6.82827,1.25 -10.391,1.25 z" />
</svg>
